<?xml version="1.0" encoding="UTF-8" standalone="no"?>
<!DOCTYPE svg PUBLIC "-//W3C//DTD SVG 1.1//EN"
 "http://www.w3.org/Graphics/SVG/1.1/DTD/svg11.dtd">
<!-- Generated by graphviz version 2.43.0 (0)
 -->
<!-- Title: OverviewStateGraph Pages: 1 -->
<svg width="1405pt" height="1328pt"
 viewBox="0.00 0.00 1405.40 1328.40" xmlns="http://www.w3.org/2000/svg" xmlns:xlink="http://www.w3.org/1999/xlink">
<g id="graph0" class="graph" transform="scale(1 1) rotate(0) translate(25.2 1303.2)">
<title>OverviewStateGraph</title>
<polygon fill="#07101b" stroke="transparent" points="-25.2,25.2 -25.2,-1303.2 1380.2,-1303.2 1380.2,25.2 -25.2,25.2"/>
<text text-anchor="middle" x="677.5" y="-1254.8" font-family="DejaVu Sans" font-size="24.00" fill="#f2e6c9">How the UI, Codex GPT Images 2, manifests, and Rust pixels fit together</text>
<g id="clust1" class="cluster">
<title>cluster_runtime</title>
<path fill="#07101b" stroke="#7a4a2b" d="M129,-604C129,-604 619,-604 619,-604 625,-604 631,-610 631,-616 631,-616 631,-1224 631,-1224 631,-1230 625,-1236 619,-1236 619,-1236 129,-1236 129,-1236 123,-1236 117,-1230 117,-1224 117,-1224 117,-616 117,-616 117,-610 123,-604 129,-604"/>
<text text-anchor="middle" x="374" y="-1212.8" font-family="DejaVu Sans" font-size="24.00" fill="#ffd98a">Runtime UI: deterministic Rust pixels app</text>
</g>
<g id="clust2" class="cluster">
<title>cluster_authoring</title>
<path fill="#07101b" stroke="#1e2b44" stroke-dasharray="5,2" d="M20,-8C20,-8 710,-8 710,-8 716,-8 722,-14 722,-20 722,-20 722,-558 722,-558 722,-564 716,-570 710,-570 710,-570 20,-570 20,-570 14,-570 8,-564 8,-558 8,-558 8,-20 8,-20 8,-14 14,-8 20,-8"/>
<text text-anchor="middle" x="365" y="-546.8" font-family="DejaVu Sans" font-size="24.00" fill="#ffd98a">Codex authoring session: image generation happens here</text>
</g>
<g id="clust3" class="cluster">
<title>cluster_pipeline</title>
<path fill="#07101b" stroke="#2e5b3f" d="M742,-11C742,-11 1335,-11 1335,-11 1341,-11 1347,-17 1347,-23 1347,-23 1347,-690 1347,-690 1347,-696 1341,-702 1335,-702 1335,-702 742,-702 742,-702 736,-702 730,-696 730,-690 730,-690 730,-23 730,-23 730,-17 736,-11 742,-11"/>
<text text-anchor="middle" x="1038.5" y="-678.8" font-family="DejaVu Sans" font-size="24.00" fill="#ffd98a">Local asset pipeline: deterministic transformation</text>
</g>
<!-- Start -->
<g id="node1" class="node">
<title>Start</title>
<path fill="#0f1a2e" stroke="#d4af37" d="M549.5,-1194C549.5,-1194 476.5,-1194 476.5,-1194 470.5,-1194 464.5,-1188 464.5,-1182 464.5,-1182 464.5,-1170 464.5,-1170 464.5,-1164 470.5,-1158 476.5,-1158 476.5,-1158 549.5,-1158 549.5,-1158 555.5,-1158 561.5,-1164 561.5,-1170 561.5,-1170 561.5,-1182 561.5,-1182 561.5,-1188 555.5,-1194 549.5,-1194"/>
<text text-anchor="middle" x="513" y="-1172.3" font-family="DejaVu Sans" font-size="14.00" fill="#f2e6c9">App starts</text>
</g>
<!-- LoadRepoState -->
<g id="node2" class="node">
<title>LoadRepoState</title>
<path fill="#0f1a2e" stroke="#d4af37" d="M606.5,-1125C606.5,-1125 419.5,-1125 419.5,-1125 413.5,-1125 407.5,-1119 407.5,-1113 407.5,-1113 407.5,-1095 407.5,-1095 407.5,-1089 413.5,-1083 419.5,-1083 419.5,-1083 606.5,-1083 606.5,-1083 612.5,-1083 618.5,-1089 618.5,-1095 618.5,-1095 618.5,-1113 618.5,-1113 618.5,-1119 612.5,-1125 606.5,-1125"/>
<text text-anchor="middle" x="513" y="-1107.8" font-family="DejaVu Sans" font-size="14.00" fill="#f2e6c9">Load manifests, palettes,</text>
<text text-anchor="middle" x="513" y="-1092.8" font-family="DejaVu Sans" font-size="14.00" fill="#f2e6c9">atlas metadata, app config</text>
</g>
<!-- Start&#45;&gt;LoadRepoState -->
<g id="edge1" class="edge">
<title>Start&#45;&gt;LoadRepoState</title>
<path fill="none" stroke="#d4af37" d="M513,-1157.83C513,-1157.83 513,-1133.23 513,-1133.23"/>
<polygon fill="#d4af37" stroke="#d4af37" points="515.8,-1133.23 513,-1125.23 510.2,-1133.23 515.8,-1133.23"/>
</g>
<!-- AssetGate -->
<g id="node3" class="node">
<title>AssetGate</title>
<path fill="#4b2e1a" stroke="#d4af37" d="M490.29,-1047.39C490.29,-1047.39 392.71,-1025.61 392.71,-1025.61 386.86,-1024.31 386.86,-1021.69 392.71,-1020.39 392.71,-1020.39 490.29,-998.61 490.29,-998.61 496.14,-997.31 507.86,-997.31 513.71,-998.61 513.71,-998.61 611.29,-1020.39 611.29,-1020.39 617.14,-1021.69 617.14,-1024.31 611.29,-1025.61 611.29,-1025.61 513.71,-1047.39 513.71,-1047.39 507.86,-1048.69 496.14,-1048.69 490.29,-1047.39"/>
<text text-anchor="middle" x="502" y="-1019.3" font-family="DejaVu Sans" font-size="14.00" fill="#f2e6c9">Assets ready?</text>
</g>
<!-- LoadRepoState&#45;&gt;AssetGate -->
<g id="edge2" class="edge">
<title>LoadRepoState&#45;&gt;AssetGate</title>
<path fill="none" stroke="#d4af37" d="M513,-1082.72C513,-1082.72 513,-1055.58 513,-1055.58"/>
<polygon fill="#d4af37" stroke="#d4af37" points="515.8,-1055.58 513,-1047.58 510.2,-1055.58 515.8,-1055.58"/>
</g>
<!-- PlaceholderDashboard -->
<g id="node4" class="node">
<title>PlaceholderDashboard</title>
<path fill="#7a4a2b" stroke="#d4af37" d="M469,-952C469,-952 267,-952 267,-952 261,-952 255,-946 255,-940 255,-940 255,-922 255,-922 255,-916 261,-910 267,-910 267,-910 469,-910 469,-910 475,-910 481,-916 481,-922 481,-922 481,-940 481,-940 481,-946 475,-952 469,-952"/>
<text text-anchor="middle" x="368" y="-934.8" font-family="DejaVu Sans" font-size="14.00" fill="#f2e6c9">Dashboard with placeholders</text>
<text text-anchor="middle" x="368" y="-919.8" font-family="DejaVu Sans" font-size="14.00" fill="#f2e6c9">and warning badges</text>
</g>
<!-- AssetGate&#45;&gt;PlaceholderDashboard -->
<g id="edge4" class="edge">
<title>AssetGate&#45;&gt;PlaceholderDashboard</title>
<path fill="none" stroke="#d4af37" d="M431,-1011.72C431,-1011.72 431,-960.19 431,-960.19"/>
<polygon fill="#d4af37" stroke="#d4af37" points="433.8,-960.19 431,-952.19 428.2,-960.19 433.8,-960.19"/>
<text text-anchor="middle" x="442" y="-971.2" font-family="DejaVu Sans" font-size="11.00" fill="#f2e6c9">no</text>
</g>
<!-- Dashboard -->
<g id="node5" class="node">
<title>Dashboard</title>
<path fill="#2e5b3f" stroke="#d4af37" d="M532,-866C532,-866 276,-866 276,-866 270,-866 264,-860 264,-854 264,-854 264,-836 264,-836 264,-830 270,-824 276,-824 276,-824 532,-824 532,-824 538,-824 544,-830 544,-836 544,-836 544,-854 544,-854 544,-860 538,-866 532,-866"/>
<text text-anchor="middle" x="404" y="-848.8" font-family="DejaVu Sans" font-size="14.00" fill="#f2e6c9">Dashboard shell</text>
<text text-anchor="middle" x="404" y="-833.8" font-family="DejaVu Sans" font-size="14.00" fill="#f2e6c9">Overview / Agents / Tasks / Analytics</text>
</g>
<!-- AssetGate&#45;&gt;Dashboard -->
<g id="edge3" class="edge">
<title>AssetGate&#45;&gt;Dashboard</title>
<path fill="none" stroke="#d4af37" d="M512.5,-998.25C512.5,-998.25 512.5,-874.21 512.5,-874.21"/>
<polygon fill="#d4af37" stroke="#d4af37" points="515.3,-874.21 512.5,-866.21 509.7,-874.21 515.3,-874.21"/>
<text text-anchor="middle" x="563" y="-928.2" font-family="DejaVu Sans" font-size="11.00" fill="#f2e6c9">yes</text>
</g>
<!-- PlaceholderDashboard&#45;&gt;Dashboard -->
<g id="edge5" class="edge">
<title>PlaceholderDashboard&#45;&gt;Dashboard</title>
<path fill="none" stroke="#d4af37" d="M372.5,-909.74C372.5,-909.74 372.5,-874.01 372.5,-874.01"/>
<polygon fill="#d4af37" stroke="#d4af37" points="375.3,-874.01 372.5,-866.01 369.7,-874.01 375.3,-874.01"/>
<text text-anchor="middle" x="422" y="-885.2" font-family="DejaVu Sans" font-size="11.00" fill="#f2e6c9">still runnable</text>
</g>
<!-- BriefEditor -->
<g id="node6" class="node">
<title>BriefEditor</title>
<path fill="#0f1a2e" stroke="#d4af37" d="M303,-780C303,-780 137,-780 137,-780 131,-780 125,-774 125,-768 125,-768 125,-750 125,-750 125,-744 131,-738 137,-738 137,-738 303,-738 303,-738 309,-738 315,-744 315,-750 315,-750 315,-768 315,-768 315,-774 309,-780 303,-780"/>
<text text-anchor="middle" x="220" y="-762.8" font-family="DejaVu Sans" font-size="14.00" fill="#f2e6c9">Day 2 brief editor</text>
<text text-anchor="middle" x="220" y="-747.8" font-family="DejaVu Sans" font-size="14.00" fill="#f2e6c9">structured controls only</text>
</g>
<!-- Dashboard&#45;&gt;BriefEditor -->
<g id="edge6" class="edge">
<title>Dashboard&#45;&gt;BriefEditor</title>
<path fill="none" stroke="#d4af37" d="M289.5,-823.74C289.5,-823.74 289.5,-788.01 289.5,-788.01"/>
<polygon fill="#d4af37" stroke="#d4af37" points="292.3,-788.01 289.5,-780.01 286.7,-788.01 292.3,-788.01"/>
<text text-anchor="middle" x="309" y="-799.2" font-family="DejaVu Sans" font-size="11.00" fill="#f2e6c9">create or edit character</text>
</g>
<!-- RuntimePreview -->
<g id="node8" class="node">
<title>RuntimePreview</title>
<path fill="#2e5b3f" stroke="#d4af37" d="M554.5,-780C554.5,-780 363.5,-780 363.5,-780 357.5,-780 351.5,-774 351.5,-768 351.5,-768 351.5,-750 351.5,-750 351.5,-744 357.5,-738 363.5,-738 363.5,-738 554.5,-738 554.5,-738 560.5,-738 566.5,-744 566.5,-750 566.5,-750 566.5,-768 566.5,-768 566.5,-774 560.5,-780 554.5,-780"/>
<text text-anchor="middle" x="459" y="-762.8" font-family="DejaVu Sans" font-size="14.00" fill="#f2e6c9">Preview approved asset</text>
<text text-anchor="middle" x="459" y="-747.8" font-family="DejaVu Sans" font-size="14.00" fill="#f2e6c9">inside roster or detail panel</text>
</g>
<!-- Dashboard&#45;&gt;RuntimePreview -->
<g id="edge29" class="edge">
<title>Dashboard&#45;&gt;RuntimePreview</title>
<path fill="none" stroke="#d4af37" d="M447.75,-823.74C447.75,-823.74 447.75,-788.01 447.75,-788.01"/>
<polygon fill="#d4af37" stroke="#d4af37" points="450.55,-788.01 447.75,-780.01 444.95,-788.01 450.55,-788.01"/>
<text text-anchor="middle" x="479.5" y="-799.2" font-family="DejaVu Sans" font-size="11.00" fill="#f2e6c9">asset selected</text>
</g>
<!-- BriefSaved -->
<g id="node7" class="node">
<title>BriefSaved</title>
<path fill="#1e2b44" stroke="#d4af37" d="M298,-654C298,-654 138,-654 138,-654 132,-654 126,-648 126,-642 126,-642 126,-624 126,-624 126,-618 132,-612 138,-612 138,-612 298,-612 298,-612 304,-612 310,-618 310,-624 310,-624 310,-642 310,-642 310,-648 304,-654 298,-654"/>
<text text-anchor="middle" x="218" y="-636.8" font-family="DejaVu Sans" font-size="14.00" fill="#f2e6c9">Strict JSON brief saved</text>
<text text-anchor="middle" x="218" y="-621.8" font-family="DejaVu Sans" font-size="14.00" fill="#f2e6c9">No runtime image call</text>
</g>
<!-- BriefEditor&#45;&gt;BriefSaved -->
<g id="edge7" class="edge">
<title>BriefEditor&#45;&gt;BriefSaved</title>
<path fill="none" stroke="#d4af37" d="M218,-737.91C218,-737.91 218,-662.16 218,-662.16"/>
<polygon fill="#d4af37" stroke="#d4af37" points="220.8,-662.16 218,-654.16 215.2,-662.16 220.8,-662.16"/>
<text text-anchor="middle" x="261.5" y="-713.2" font-family="DejaVu Sans" font-size="11.00" fill="#f2e6c9">save valid brief</text>
</g>
<!-- ReadBrief -->
<g id="node9" class="node">
<title>ReadBrief</title>
<path fill="#0f1a2e" stroke="#d4af37" d="M510.5,-528C510.5,-528 333.5,-528 333.5,-528 327.5,-528 321.5,-522 321.5,-516 321.5,-516 321.5,-504 321.5,-504 321.5,-498 327.5,-492 333.5,-492 333.5,-492 510.5,-492 510.5,-492 516.5,-492 522.5,-498 522.5,-504 522.5,-504 522.5,-516 522.5,-516 522.5,-522 516.5,-528 510.5,-528"/>
<text text-anchor="middle" x="422" y="-506.3" font-family="DejaVu Sans" font-size="14.00" fill="#f2e6c9">Read brief and style docs</text>
</g>
<!-- BriefSaved&#45;&gt;ReadBrief -->
<g id="edge8" class="edge">
<title>BriefSaved&#45;&gt;ReadBrief</title>
<path fill="none" stroke="#8fb3d9" stroke-dasharray="5,2" d="M300,-611.86C300,-576.69 300,-510 300,-510 300,-510 313.25,-510 313.25,-510"/>
<polygon fill="#8fb3d9" stroke="#8fb3d9" points="313.25,-512.8 321.25,-510 313.25,-507.2 313.25,-512.8"/>
<text text-anchor="middle" x="168.5" y="-581.2" font-family="DejaVu Sans" font-size="11.00" fill="#f2e6c9">Codex hand&#45;off</text>
</g>
<!-- StructuredPrompt -->
<g id="node10" class="node">
<title>StructuredPrompt</title>
<path fill="#0f1a2e" stroke="#d4af37" d="M528.5,-439C528.5,-439 377.5,-439 377.5,-439 371.5,-439 365.5,-433 365.5,-427 365.5,-427 365.5,-409 365.5,-409 365.5,-403 371.5,-397 377.5,-397 377.5,-397 528.5,-397 528.5,-397 534.5,-397 540.5,-403 540.5,-409 540.5,-409 540.5,-427 540.5,-427 540.5,-433 534.5,-439 528.5,-439"/>
<text text-anchor="middle" x="453" y="-421.8" font-family="DejaVu Sans" font-size="14.00" fill="#f2e6c9">Build structured</text>
<text text-anchor="middle" x="453" y="-406.8" font-family="DejaVu Sans" font-size="14.00" fill="#f2e6c9">GPT Images 2 prompt</text>
</g>
<!-- ReadBrief&#45;&gt;StructuredPrompt -->
<g id="edge9" class="edge">
<title>ReadBrief&#45;&gt;StructuredPrompt</title>
<path fill="none" stroke="#d4af37" d="M444,-491.82C444,-491.82 444,-447.04 444,-447.04"/>
<polygon fill="#d4af37" stroke="#d4af37" points="446.8,-447.04 444,-439.04 441.2,-447.04 446.8,-447.04"/>
</g>
<!-- ImageGen -->
<g id="node11" class="node">
<title>ImageGen</title>
<path fill="#2e5b3f" stroke="#d4af37" d="M518,-344C518,-344 388,-344 388,-344 382,-344 376,-338 376,-332 376,-332 376,-320 376,-320 376,-314 382,-308 388,-308 388,-308 518,-308 518,-308 524,-308 530,-314 530,-320 530,-320 530,-332 530,-332 530,-338 524,-344 518,-344"/>
<text text-anchor="middle" x="453" y="-322.3" font-family="DejaVu Sans" font-size="14.00" fill="#f2e6c9">Built&#45;in image_gen</text>
</g>
<!-- StructuredPrompt&#45;&gt;ImageGen -->
<g id="edge10" class="edge">
<title>StructuredPrompt&#45;&gt;ImageGen</title>
<path fill="none" stroke="#d4af37" d="M453,-396.66C453,-396.66 453,-352.12 453,-352.12"/>
<polygon fill="#d4af37" stroke="#d4af37" points="455.8,-352.12 453,-344.12 450.2,-352.12 455.8,-352.12"/>
</g>
<!-- Inspect -->
<g id="node12" class="node">
<title>Inspect</title>
<path fill="#4b2e1a" stroke="#d4af37" d="M441.38,-258.01C441.38,-258.01 301.62,-221.99 301.62,-221.99 295.81,-220.5 295.81,-217.5 301.62,-216.01 301.62,-216.01 441.38,-179.99 441.38,-179.99 447.19,-178.5 458.81,-178.5 464.62,-179.99 464.62,-179.99 604.38,-216.01 604.38,-216.01 610.19,-217.5 610.19,-220.5 604.38,-221.99 604.38,-221.99 464.62,-258.01 464.62,-258.01 458.81,-259.5 447.19,-259.5 441.38,-258.01"/>
<text text-anchor="middle" x="453" y="-222.8" font-family="DejaVu Sans" font-size="14.00" fill="#f2e6c9">Subject, style, text,</text>
<text text-anchor="middle" x="453" y="-207.8" font-family="DejaVu Sans" font-size="14.00" fill="#f2e6c9">and avoid&#45;list pass?</text>
</g>
<!-- ImageGen&#45;&gt;Inspect -->
<g id="edge11" class="edge">
<title>ImageGen&#45;&gt;Inspect</title>
<path fill="none" stroke="#d4af37" d="M453,-307.85C453,-307.85 453,-269.29 453,-269.29"/>
<polygon fill="#d4af37" stroke="#d4af37" points="455.8,-269.29 453,-261.29 450.2,-269.29 455.8,-269.29"/>
</g>
<!-- RevisePrompt -->
<g id="node13" class="node">
<title>RevisePrompt</title>
<path fill="#7a2e1a" stroke="#d4af37" d="M702,-133C702,-133 586,-133 586,-133 580,-133 574,-127 574,-121 574,-121 574,-103 574,-103 574,-97 580,-91 586,-91 586,-91 702,-91 702,-91 708,-91 714,-97 714,-103 714,-103 714,-121 714,-121 714,-127 708,-133 702,-133"/>
<text text-anchor="middle" x="644" y="-115.8" font-family="DejaVu Sans" font-size="14.00" fill="#f2e6c9">Revise one thing</text>
<text text-anchor="middle" x="644" y="-100.8" font-family="DejaVu Sans" font-size="14.00" fill="#f2e6c9">and regenerate</text>
</g>
<!-- Inspect&#45;&gt;RevisePrompt -->
<g id="edge12" class="edge">
<title>Inspect&#45;&gt;RevisePrompt</title>
<path fill="none" stroke="#d4af37" d="M595,-213.55C595,-213.55 595,-141.33 595,-141.33"/>
<polygon fill="#d4af37" stroke="#d4af37" points="597.8,-141.33 595,-133.33 592.2,-141.33 597.8,-141.33"/>
<text text-anchor="middle" x="561" y="-152.2" font-family="DejaVu Sans" font-size="11.00" fill="#f2e6c9">no</text>
</g>
<!-- CopyWorkspace -->
<g id="node14" class="node">
<title>CopyWorkspace</title>
<path fill="#0f1a2e" stroke="#d4af37" d="M525.5,-133C525.5,-133 302.5,-133 302.5,-133 296.5,-133 290.5,-127 290.5,-121 290.5,-121 290.5,-103 290.5,-103 290.5,-97 296.5,-91 302.5,-91 302.5,-91 525.5,-91 525.5,-91 531.5,-91 537.5,-97 537.5,-103 537.5,-103 537.5,-121 537.5,-121 537.5,-127 531.5,-133 525.5,-133"/>
<text text-anchor="middle" x="414" y="-115.8" font-family="DejaVu Sans" font-size="14.00" fill="#f2e6c9">Copy accepted source</text>
<text text-anchor="middle" x="414" y="-100.8" font-family="DejaVu Sans" font-size="14.00" fill="#f2e6c9">into assets/source/gpt&#45;images&#45;2</text>
</g>
<!-- Inspect&#45;&gt;CopyWorkspace -->
<g id="edge14" class="edge">
<title>Inspect&#45;&gt;CopyWorkspace</title>
<path fill="none" stroke="#d4af37" d="M414,-186.9C414,-186.9 414,-141.25 414,-141.25"/>
<polygon fill="#d4af37" stroke="#d4af37" points="416.8,-141.25 414,-133.25 411.2,-141.25 416.8,-141.25"/>
<text text-anchor="middle" x="443" y="-152.2" font-family="DejaVu Sans" font-size="11.00" fill="#f2e6c9">yes</text>
</g>
<!-- RevisePrompt&#45;&gt;StructuredPrompt -->
<g id="edge13" class="edge">
<title>RevisePrompt&#45;&gt;StructuredPrompt</title>
<path fill="none" stroke="#d4af37" d="M619.5,-133.03C619.5,-202.17 619.5,-418 619.5,-418 619.5,-418 548.64,-418 548.64,-418"/>
<polygon fill="#d4af37" stroke="#d4af37" points="548.64,-415.2 540.64,-418 548.64,-420.8 548.64,-415.2"/>
</g>
<!-- Manifest -->
<g id="node15" class="node">
<title>Manifest</title>
<path fill="#0f1a2e" stroke="#d4af37" d="M398.5,-58C398.5,-58 173.5,-58 173.5,-58 167.5,-58 161.5,-52 161.5,-46 161.5,-46 161.5,-28 161.5,-28 161.5,-22 167.5,-16 173.5,-16 173.5,-16 398.5,-16 398.5,-16 404.5,-16 410.5,-22 410.5,-28 410.5,-28 410.5,-46 410.5,-46 410.5,-52 404.5,-58 398.5,-58"/>
<text text-anchor="middle" x="286" y="-40.8" font-family="DejaVu Sans" font-size="14.00" fill="#f2e6c9">Create or update manifest</text>
<text text-anchor="middle" x="286" y="-25.8" font-family="DejaVu Sans" font-size="14.00" fill="#f2e6c9">prompt provenance + validation</text>
</g>
<!-- CopyWorkspace&#45;&gt;Manifest -->
<g id="edge15" class="edge">
<title>CopyWorkspace&#45;&gt;Manifest</title>
<path fill="none" stroke="#d4af37" d="M350.5,-90.71C350.5,-90.71 350.5,-66.09 350.5,-66.09"/>
<polygon fill="#d4af37" stroke="#d4af37" points="353.3,-66.08 350.5,-58.09 347.7,-66.09 353.3,-66.08"/>
</g>
<!-- NeedsAlpha -->
<g id="node16" class="node">
<title>NeedsAlpha</title>
<path fill="#4b2e1a" stroke="#d4af37" d="M856.3,-657.32C856.3,-657.32 761.7,-635.68 761.7,-635.68 755.85,-634.34 755.85,-631.66 761.7,-630.32 761.7,-630.32 856.3,-608.68 856.3,-608.68 862.15,-607.34 873.85,-607.34 879.7,-608.68 879.7,-608.68 974.3,-630.32 974.3,-630.32 980.15,-631.66 980.15,-634.34 974.3,-635.68 974.3,-635.68 879.7,-657.32 879.7,-657.32 873.85,-658.66 862.15,-658.66 856.3,-657.32"/>
<text text-anchor="middle" x="868" y="-629.3" font-family="DejaVu Sans" font-size="14.00" fill="#f2e6c9">Needs alpha?</text>
</g>
<!-- Manifest&#45;&gt;NeedsAlpha -->
<g id="edge16" class="edge">
<title>Manifest&#45;&gt;NeedsAlpha</title>
<path fill="none" stroke="#d4af37" d="M410.54,-36C540.57,-36 725.75,-36 725.75,-36 725.75,-36 725.75,-633 725.75,-633 725.75,-633 741.88,-633 741.88,-633"/>
<polygon fill="#d4af37" stroke="#d4af37" points="741.88,-635.8 749.88,-633 741.88,-630.2 741.88,-635.8"/>
</g>
<!-- ChromaKey -->
<g id="node17" class="node">
<title>ChromaKey</title>
<path fill="#0f1a2e" stroke="#d4af37" d="M950.5,-531C950.5,-531 785.5,-531 785.5,-531 779.5,-531 773.5,-525 773.5,-519 773.5,-519 773.5,-501 773.5,-501 773.5,-495 779.5,-489 785.5,-489 785.5,-489 950.5,-489 950.5,-489 956.5,-489 962.5,-495 962.5,-501 962.5,-501 962.5,-519 962.5,-519 962.5,-525 956.5,-531 950.5,-531"/>
<text text-anchor="middle" x="868" y="-513.8" font-family="DejaVu Sans" font-size="14.00" fill="#f2e6c9">Chroma&#45;key source</text>
<text text-anchor="middle" x="868" y="-498.8" font-family="DejaVu Sans" font-size="14.00" fill="#f2e6c9">then remove key locally</text>
</g>
<!-- NeedsAlpha&#45;&gt;ChromaKey -->
<g id="edge17" class="edge">
<title>NeedsAlpha&#45;&gt;ChromaKey</title>
<path fill="none" stroke="#d4af37" d="M868,-605.7C868,-605.7 868,-539.11 868,-539.11"/>
<polygon fill="#d4af37" stroke="#d4af37" points="870.8,-539.11 868,-531.11 865.2,-539.11 870.8,-539.11"/>
<text text-anchor="middle" x="878" y="-581.2" font-family="DejaVu Sans" font-size="11.00" fill="#f2e6c9">yes</text>
</g>
<!-- PostProcess -->
<g id="node20" class="node">
<title>PostProcess</title>
<path fill="#0f1a2e" stroke="#d4af37" d="M1081,-347C1081,-347 935,-347 935,-347 929,-347 923,-341 923,-335 923,-335 923,-317 923,-317 923,-311 929,-305 935,-305 935,-305 1081,-305 1081,-305 1087,-305 1093,-311 1093,-317 1093,-317 1093,-335 1093,-335 1093,-341 1087,-347 1081,-347"/>
<text text-anchor="middle" x="1008" y="-329.8" font-family="DejaVu Sans" font-size="14.00" fill="#f2e6c9">Crop, quantize, slice,</text>
<text text-anchor="middle" x="1008" y="-314.8" font-family="DejaVu Sans" font-size="14.00" fill="#f2e6c9">normalize, validate</text>
</g>
<!-- NeedsAlpha&#45;&gt;PostProcess -->
<g id="edge22" class="edge">
<title>NeedsAlpha&#45;&gt;PostProcess</title>
<path fill="none" stroke="#d4af37" d="M976.5,-630.71C976.5,-630.71 976.5,-355.38 976.5,-355.38"/>
<polygon fill="#d4af37" stroke="#d4af37" points="979.3,-355.38 976.5,-347.38 973.7,-355.38 979.3,-355.38"/>
<text text-anchor="middle" x="1013" y="-464.2" font-family="DejaVu Sans" font-size="11.00" fill="#f2e6c9">no</text>
</g>
<!-- AlphaGate -->
<g id="node18" class="node">
<title>AlphaGate</title>
<path fill="#4b2e1a" stroke="#d4af37" d="M842.33,-442.21C842.33,-442.21 752.67,-420.79 752.67,-420.79 746.84,-419.39 746.84,-416.61 752.67,-415.21 752.67,-415.21 842.33,-393.79 842.33,-393.79 848.16,-392.39 859.84,-392.39 865.67,-393.79 865.67,-393.79 955.33,-415.21 955.33,-415.21 961.16,-416.61 961.16,-419.39 955.33,-420.79 955.33,-420.79 865.67,-442.21 865.67,-442.21 859.84,-443.61 848.16,-443.61 842.33,-442.21"/>
<text text-anchor="middle" x="854" y="-414.3" font-family="DejaVu Sans" font-size="14.00" fill="#f2e6c9">Alpha clean?</text>
</g>
<!-- ChromaKey&#45;&gt;AlphaGate -->
<g id="edge18" class="edge">
<title>ChromaKey&#45;&gt;AlphaGate</title>
<path fill="none" stroke="#d4af37" d="M836.5,-488.66C836.5,-488.66 836.5,-448.83 836.5,-448.83"/>
<polygon fill="#d4af37" stroke="#d4af37" points="839.3,-448.83 836.5,-440.83 833.7,-448.83 839.3,-448.83"/>
</g>
<!-- AlphaGate&#45;&gt;ChromaKey -->
<g id="edge20" class="edge">
<title>AlphaGate&#45;&gt;ChromaKey</title>
<path fill="none" stroke="#d4af37" d="M899.5,-434.45C899.5,-434.45 899.5,-480.84 899.5,-480.84"/>
<polygon fill="#d4af37" stroke="#d4af37" points="896.7,-480.84 899.5,-488.84 902.3,-480.84 896.7,-480.84"/>
<text text-anchor="middle" x="909" y="-464.2" font-family="DejaVu Sans" font-size="11.00" fill="#f2e6c9">retry once</text>
</g>
<!-- AskFallback -->
<g id="node19" class="node">
<title>AskFallback</title>
<path fill="#7a4a2b" stroke="#d4af37" d="M874.5,-347C874.5,-347 749.5,-347 749.5,-347 743.5,-347 737.5,-341 737.5,-335 737.5,-335 737.5,-317 737.5,-317 737.5,-311 743.5,-305 749.5,-305 749.5,-305 874.5,-305 874.5,-305 880.5,-305 886.5,-311 886.5,-317 886.5,-317 886.5,-335 886.5,-335 886.5,-341 880.5,-347 874.5,-347"/>
<text text-anchor="middle" x="812" y="-329.8" font-family="DejaVu Sans" font-size="14.00" fill="#f2e6c9">Ask before CLI</text>
<text text-anchor="middle" x="812" y="-314.8" font-family="DejaVu Sans" font-size="14.00" fill="#f2e6c9">true transparency</text>
</g>
<!-- AlphaGate&#45;&gt;AskFallback -->
<g id="edge21" class="edge">
<title>AlphaGate&#45;&gt;AskFallback</title>
<path fill="none" stroke="#d4af37" d="M813.75,-400.26C813.75,-400.26 813.75,-355.24 813.75,-355.24"/>
<polygon fill="#d4af37" stroke="#d4af37" points="816.55,-355.24 813.75,-347.24 810.95,-355.24 816.55,-355.24"/>
<text text-anchor="middle" x="866.5" y="-366.2" font-family="DejaVu Sans" font-size="11.00" fill="#f2e6c9">complex fail</text>
</g>
<!-- AlphaGate&#45;&gt;PostProcess -->
<g id="edge19" class="edge">
<title>AlphaGate&#45;&gt;PostProcess</title>
<path fill="none" stroke="#d4af37" d="M945,-412.52C945,-412.52 945,-355.36 945,-355.36"/>
<polygon fill="#d4af37" stroke="#d4af37" points="947.8,-355.36 945,-347.36 942.2,-355.36 947.8,-355.36"/>
<text text-anchor="middle" x="981" y="-366.2" font-family="DejaVu Sans" font-size="11.00" fill="#f2e6c9">yes</text>
</g>
<!-- ProcessGate -->
<g id="node21" class="node">
<title>ProcessGate</title>
<path fill="#4b2e1a" stroke="#d4af37" d="M916.14,-244.2C916.14,-244.2 761.86,-220.8 761.86,-220.8 755.93,-219.9 755.93,-218.1 761.86,-217.2 761.86,-217.2 916.14,-193.8 916.14,-193.8 922.07,-192.9 933.93,-192.9 939.86,-193.8 939.86,-193.8 1094.14,-217.2 1094.14,-217.2 1100.07,-218.1 1100.07,-219.9 1094.14,-220.8 1094.14,-220.8 939.86,-244.2 939.86,-244.2 933.93,-245.1 922.07,-245.1 916.14,-244.2"/>
<text text-anchor="middle" x="928" y="-215.3" font-family="DejaVu Sans" font-size="14.00" fill="#f2e6c9">Runtime quality pass?</text>
</g>
<!-- PostProcess&#45;&gt;ProcessGate -->
<g id="edge23" class="edge">
<title>PostProcess&#45;&gt;ProcessGate</title>
<path fill="none" stroke="#d4af37" d="M979.67,-304.86C979.67,-304.86 979.67,-246.3 979.67,-246.3"/>
<polygon fill="#d4af37" stroke="#d4af37" points="982.47,-246.3 979.67,-238.3 976.87,-246.3 982.47,-246.3"/>
</g>
<!-- ProcessGate&#45;&gt;RevisePrompt -->
<g id="edge24" class="edge">
<title>ProcessGate&#45;&gt;RevisePrompt</title>
<path fill="none" stroke="#d4af37" d="M749.9,-219C704.61,-219 668.5,-219 668.5,-219 668.5,-219 668.5,-141.14 668.5,-141.14"/>
<polygon fill="#d4af37" stroke="#d4af37" points="671.3,-141.14 668.5,-133.14 665.7,-141.14 671.3,-141.14"/>
<text text-anchor="middle" x="791" y="-152.2" font-family="DejaVu Sans" font-size="11.00" fill="#f2e6c9">source problem</text>
</g>
<!-- ProcessGate&#45;&gt;PostProcess -->
<g id="edge25" class="edge">
<title>ProcessGate&#45;&gt;PostProcess</title>
<path fill="none" stroke="#d4af37" d="M1036.33,-229.65C1036.33,-229.65 1036.33,-296.74 1036.33,-296.74"/>
<polygon fill="#d4af37" stroke="#d4af37" points="1033.53,-296.74 1036.33,-304.74 1039.13,-296.74 1033.53,-296.74"/>
<text text-anchor="middle" x="1023.5" y="-280.2" font-family="DejaVu Sans" font-size="11.00" fill="#f2e6c9">local fix</text>
</g>
<!-- Atlas -->
<g id="node22" class="node">
<title>Atlas</title>
<path fill="#0f1a2e" stroke="#d4af37" d="M1050.5,-130C1050.5,-130 893.5,-130 893.5,-130 887.5,-130 881.5,-124 881.5,-118 881.5,-118 881.5,-106 881.5,-106 881.5,-100 887.5,-94 893.5,-94 893.5,-94 1050.5,-94 1050.5,-94 1056.5,-94 1062.5,-100 1062.5,-106 1062.5,-106 1062.5,-118 1062.5,-118 1062.5,-124 1056.5,-130 1050.5,-130"/>
<text text-anchor="middle" x="972" y="-108.3" font-family="DejaVu Sans" font-size="14.00" fill="#f2e6c9">Pack atlas + metadata</text>
</g>
<!-- ProcessGate&#45;&gt;Atlas -->
<g id="edge26" class="edge">
<title>ProcessGate&#45;&gt;Atlas</title>
<path fill="none" stroke="#d4af37" d="M972,-198.62C972,-198.62 972,-138.16 972,-138.16"/>
<polygon fill="#d4af37" stroke="#d4af37" points="974.8,-138.16 972,-130.16 969.2,-138.16 974.8,-138.16"/>
<text text-anchor="middle" x="960" y="-152.2" font-family="DejaVu Sans" font-size="11.00" fill="#f2e6c9">yes</text>
</g>
<!-- ApprovedManifest -->
<g id="node23" class="node">
<title>ApprovedManifest</title>
<path fill="#2e5b3f" stroke="#d4af37" d="M1204,-55C1204,-55 1012,-55 1012,-55 1006,-55 1000,-49 1000,-43 1000,-43 1000,-31 1000,-31 1000,-25 1006,-19 1012,-19 1012,-19 1204,-19 1204,-19 1210,-19 1216,-25 1216,-31 1216,-31 1216,-43 1216,-43 1216,-49 1210,-55 1204,-55"/>
<text text-anchor="middle" x="1108" y="-33.3" font-family="DejaVu Sans" font-size="14.00" fill="#f2e6c9">Approved runtime manifest</text>
</g>
<!-- Atlas&#45;&gt;ApprovedManifest -->
<g id="edge27" class="edge">
<title>Atlas&#45;&gt;ApprovedManifest</title>
<path fill="none" stroke="#d4af37" d="M1031.25,-93.84C1031.25,-93.84 1031.25,-63.25 1031.25,-63.25"/>
<polygon fill="#d4af37" stroke="#d4af37" points="1034.05,-63.25 1031.25,-55.25 1028.45,-63.25 1034.05,-63.25"/>
</g>
<!-- ApprovedManifest&#45;&gt;LoadRepoState -->
<g id="edge28" class="edge">
<title>ApprovedManifest&#45;&gt;LoadRepoState</title>
<path fill="none" stroke="#8fb3d9" stroke-dasharray="5,2" d="M1161,-55.07C1161,-195.28 1161,-1104 1161,-1104 1161,-1104 626.55,-1104 626.55,-1104"/>
<polygon fill="#8fb3d9" stroke="#8fb3d9" points="626.55,-1101.2 618.55,-1104 626.55,-1106.8 626.55,-1101.2"/>
<text text-anchor="middle" x="1191.5" y="-581.2" font-family="DejaVu Sans" font-size="11.00" fill="#f2e6c9">reload files</text>
</g>
</g>
</svg>
