<?xml version="1.0" encoding="UTF-8" standalone="no"?>
<!DOCTYPE svg PUBLIC "-//W3C//DTD SVG 1.1//EN"
 "http://www.w3.org/Graphics/SVG/1.1/DTD/svg11.dtd">
<!-- Generated by graphviz version 13.1.2 (20250808.2320)
 -->
<!-- Title: OverviewStateGraph Pages: 1 -->
<svg width="1403pt" height="1423pt"
 viewBox="0.00 0.00 1403.00 1423.00" xmlns="http://www.w3.org/2000/svg" xmlns:xlink="http://www.w3.org/1999/xlink">
<g id="graph0" class="graph" transform="scale(1 1) rotate(0) translate(25.2 1397.83)">
<title>OverviewStateGraph</title>
<polygon fill="#07101b" stroke="none" points="-25.2,25.2 -25.2,-1397.83 1378.2,-1397.83 1378.2,25.2 -25.2,25.2"/>
<text xml:space="preserve" text-anchor="middle" x="676.5" y="-1345.83" font-family="DejaVu Sans" font-size="24.00" fill="#f2e6c9">How the UI, Codex GPT Images 2, manifests, and Rust pixels fit together</text>
<g id="clust1" class="cluster">
<title>cluster_runtime</title>
<path fill="#07101b" stroke="#7a4a2b" d="M131,-650.93C131,-650.93 620,-650.93 620,-650.93 626,-650.93 632,-656.93 632,-662.93 632,-662.93 632,-1316.13 632,-1316.13 632,-1322.13 626,-1328.13 620,-1328.13 620,-1328.13 131,-1328.13 131,-1328.13 125,-1328.13 119,-1322.13 119,-1316.13 119,-1316.13 119,-662.93 119,-662.93 119,-656.93 125,-650.93 131,-650.93"/>
<text xml:space="preserve" text-anchor="middle" x="375.5" y="-1301.33" font-family="DejaVu Sans" font-size="24.00" fill="#ffd98a">Runtime UI: deterministic Rust pixels app</text>
</g>
<g id="clust2" class="cluster">
<title>cluster_authoring</title>
<path fill="#07101b" stroke="#1e2b44" stroke-dasharray="5,2" d="M20,-8C20,-8 709,-8 709,-8 715,-8 721,-14 721,-20 721,-20 721,-602.95 721,-602.95 721,-608.95 715,-614.95 709,-614.95 709,-614.95 20,-614.95 20,-614.95 14,-614.95 8,-608.95 8,-602.95 8,-602.95 8,-20 8,-20 8,-14 14,-8 20,-8"/>
<text xml:space="preserve" text-anchor="middle" x="364.5" y="-588.15" font-family="DejaVu Sans" font-size="24.00" fill="#ffd98a">Codex authoring session: image generation happens here</text>
</g>
<g id="clust3" class="cluster">
<title>cluster_pipeline</title>
<path fill="#07101b" stroke="#2e5b3f" d="M741,-13.73C741,-13.73 1333,-13.73 1333,-13.73 1339,-13.73 1345,-19.73 1345,-25.73 1345,-25.73 1345,-745.37 1345,-745.37 1345,-751.37 1339,-757.37 1333,-757.37 1333,-757.37 741,-757.37 741,-757.37 735,-757.37 729,-751.37 729,-745.37 729,-745.37 729,-25.73 729,-25.73 729,-19.73 735,-13.73 741,-13.73"/>
<text xml:space="preserve" text-anchor="middle" x="1037" y="-730.57" font-family="DejaVu Sans" font-size="24.00" fill="#ffd98a">Local asset pipeline: deterministic transformation</text>
</g>
<!-- Start -->
<g id="node1" class="node">
<title>Start</title>
<path fill="#0f1a2e" stroke="#d4af37" d="M550.52,-1283.63C550.52,-1283.63 479.48,-1283.63 479.48,-1283.63 473.48,-1283.63 467.48,-1277.63 467.48,-1271.63 467.48,-1271.63 467.48,-1259.63 467.48,-1259.63 467.48,-1253.63 473.48,-1247.63 479.48,-1247.63 479.48,-1247.63 550.52,-1247.63 550.52,-1247.63 556.52,-1247.63 562.52,-1253.63 562.52,-1259.63 562.52,-1259.63 562.52,-1271.63 562.52,-1271.63 562.52,-1277.63 556.52,-1283.63 550.52,-1283.63"/>
<text xml:space="preserve" text-anchor="middle" x="515" y="-1260.96" font-family="DejaVu Sans" font-size="14.00" fill="#f2e6c9">App starts</text>
</g>
<!-- LoadRepoState -->
<g id="node2" class="node">
<title>LoadRepoState</title>
<path fill="#0f1a2e" stroke="#d4af37" d="M607.52,-1214.63C607.52,-1214.63 422.48,-1214.63 422.48,-1214.63 416.48,-1214.63 410.48,-1208.63 410.48,-1202.63 410.48,-1202.63 410.48,-1179.17 410.48,-1179.17 410.48,-1173.17 416.48,-1167.17 422.48,-1167.17 422.48,-1167.17 607.52,-1167.17 607.52,-1167.17 613.52,-1167.17 619.52,-1173.17 619.52,-1179.17 619.52,-1179.17 619.52,-1202.63 619.52,-1202.63 619.52,-1208.63 613.52,-1214.63 607.52,-1214.63"/>
<text xml:space="preserve" text-anchor="middle" x="515" y="-1194.85" font-family="DejaVu Sans" font-size="14.00" fill="#f2e6c9">Load manifests, palettes,</text>
<text xml:space="preserve" text-anchor="middle" x="515" y="-1177.6" font-family="DejaVu Sans" font-size="14.00" fill="#f2e6c9">atlas metadata, app config</text>
</g>
<!-- Start&#45;&gt;LoadRepoState -->
<g id="edge1" class="edge">
<title>Start&#45;&gt;LoadRepoState</title>
<path fill="none" stroke="#d4af37" d="M515,-1247.16C515,-1247.16 515,-1224.6 515,-1224.6"/>
<polygon fill="#d4af37" stroke="#d4af37" points="517.8,-1224.6 515,-1216.6 512.2,-1224.6 517.8,-1224.6"/>
</g>
<!-- AssetGate -->
<g id="node3" class="node">
<title>AssetGate</title>
<path fill="#4b2e1a" stroke="#d4af37" d="M492.36,-1131.24C492.36,-1131.24 395.85,-1106.89 395.85,-1106.89 390.03,-1105.43 390.03,-1102.49 395.85,-1101.03 395.85,-1101.03 492.36,-1076.68 492.36,-1076.68 498.18,-1075.22 509.82,-1075.22 515.64,-1076.68 515.64,-1076.68 612.15,-1101.03 612.15,-1101.03 617.97,-1102.49 617.97,-1105.43 612.15,-1106.89 612.15,-1106.89 515.64,-1131.24 515.64,-1131.24 509.82,-1132.7 498.18,-1132.7 492.36,-1131.24"/>
<text xml:space="preserve" text-anchor="middle" x="504" y="-1099.29" font-family="DejaVu Sans" font-size="14.00" fill="#f2e6c9">Assets ready?</text>
</g>
<!-- LoadRepoState&#45;&gt;AssetGate -->
<g id="edge2" class="edge">
<title>LoadRepoState&#45;&gt;AssetGate</title>
<path fill="none" stroke="#d4af37" d="M515,-1166.68C515,-1166.68 515,-1141.24 515,-1141.24"/>
<polygon fill="#d4af37" stroke="#d4af37" points="517.8,-1141.24 515,-1133.24 512.2,-1141.24 517.8,-1141.24"/>
</g>
<!-- PlaceholderDashboard -->
<g id="node4" class="node">
<title>PlaceholderDashboard</title>
<path fill="#7a4a2b" stroke="#d4af37" d="M486.39,-1028.25C486.39,-1028.25 285.61,-1028.25 285.61,-1028.25 279.61,-1028.25 273.61,-1022.25 273.61,-1016.25 273.61,-1016.25 273.61,-992.79 273.61,-992.79 273.61,-986.79 279.61,-980.79 285.61,-980.79 285.61,-980.79 486.39,-980.79 486.39,-980.79 492.39,-980.79 498.39,-986.79 498.39,-992.79 498.39,-992.79 498.39,-1016.25 498.39,-1016.25 498.39,-1022.25 492.39,-1028.25 486.39,-1028.25"/>
<text xml:space="preserve" text-anchor="middle" x="386" y="-1008.47" font-family="DejaVu Sans" font-size="14.00" fill="#f2e6c9">Dashboard with placeholders</text>
<text xml:space="preserve" text-anchor="middle" x="386" y="-991.22" font-family="DejaVu Sans" font-size="14.00" fill="#f2e6c9">and warning badges</text>
</g>
<!-- AssetGate&#45;&gt;PlaceholderDashboard -->
<g id="edge4" class="edge">
<title>AssetGate&#45;&gt;PlaceholderDashboard</title>
<path fill="none" stroke="#d4af37" d="M441.3,-1089.29C441.3,-1089.29 441.3,-1038.03 441.3,-1038.03"/>
<polygon fill="#d4af37" stroke="#d4af37" points="444.1,-1038.03 441.3,-1030.03 438.5,-1038.03 444.1,-1038.03"/>
<text xml:space="preserve" text-anchor="middle" x="451.75" y="-1047.3" font-family="DejaVu Sans" font-size="11.00" fill="#f2e6c9">no</text>
</g>
<!-- Dashboard -->
<g id="node5" class="node">
<title>Dashboard</title>
<path fill="#2e5b3f" stroke="#d4af37" d="M533.02,-935.29C533.02,-935.29 278.98,-935.29 278.98,-935.29 272.98,-935.29 266.98,-929.29 266.98,-923.29 266.98,-923.29 266.98,-899.83 266.98,-899.83 266.98,-893.83 272.98,-887.83 278.98,-887.83 278.98,-887.83 533.02,-887.83 533.02,-887.83 539.02,-887.83 545.02,-893.83 545.02,-899.83 545.02,-899.83 545.02,-923.29 545.02,-923.29 545.02,-929.29 539.02,-935.29 533.02,-935.29"/>
<text xml:space="preserve" text-anchor="middle" x="406" y="-915.51" font-family="DejaVu Sans" font-size="14.00" fill="#f2e6c9">Dashboard shell</text>
<text xml:space="preserve" text-anchor="middle" x="406" y="-898.26" font-family="DejaVu Sans" font-size="14.00" fill="#f2e6c9">Overview / Agents / Tasks / Analytics</text>
</g>
<!-- AssetGate&#45;&gt;Dashboard -->
<g id="edge3" class="edge">
<title>AssetGate&#45;&gt;Dashboard</title>
<path fill="none" stroke="#d4af37" d="M521.71,-1078.01C521.71,-1078.01 521.71,-945.1 521.71,-945.1"/>
<polygon fill="#d4af37" stroke="#d4af37" points="524.51,-945.1 521.71,-937.1 518.91,-945.1 524.51,-945.1"/>
<text xml:space="preserve" text-anchor="middle" x="579.75" y="-1000.82" font-family="DejaVu Sans" font-size="11.00" fill="#f2e6c9">yes</text>
</g>
<!-- PlaceholderDashboard&#45;&gt;Dashboard -->
<g id="edge5" class="edge">
<title>PlaceholderDashboard&#45;&gt;Dashboard</title>
<path fill="none" stroke="#d4af37" d="M386,-980.58C386,-980.58 386,-945.26 386,-945.26"/>
<polygon fill="#d4af37" stroke="#d4af37" points="388.8,-945.25 386,-937.26 383.2,-945.26 388.8,-945.25"/>
<text xml:space="preserve" text-anchor="middle" x="431.62" y="-954.34" font-family="DejaVu Sans" font-size="11.00" fill="#f2e6c9">still runnable</text>
</g>
<!-- BriefEditor -->
<g id="node6" class="node">
<title>BriefEditor</title>
<path fill="#0f1a2e" stroke="#d4af37" d="M303.02,-842.33C303.02,-842.33 138.98,-842.33 138.98,-842.33 132.98,-842.33 126.98,-836.33 126.98,-830.33 126.98,-830.33 126.98,-806.87 126.98,-806.87 126.98,-800.87 132.98,-794.87 138.98,-794.87 138.98,-794.87 303.02,-794.87 303.02,-794.87 309.02,-794.87 315.02,-800.87 315.02,-806.87 315.02,-806.87 315.02,-830.33 315.02,-830.33 315.02,-836.33 309.02,-842.33 303.02,-842.33"/>
<text xml:space="preserve" text-anchor="middle" x="221" y="-822.55" font-family="DejaVu Sans" font-size="14.00" fill="#f2e6c9">Day 2 brief editor</text>
<text xml:space="preserve" text-anchor="middle" x="221" y="-805.3" font-family="DejaVu Sans" font-size="14.00" fill="#f2e6c9">structured controls only</text>
</g>
<!-- Dashboard&#45;&gt;BriefEditor -->
<g id="edge6" class="edge">
<title>Dashboard&#45;&gt;BriefEditor</title>
<path fill="none" stroke="#d4af37" d="M291,-887.62C291,-887.62 291,-852.3 291,-852.3"/>
<polygon fill="#d4af37" stroke="#d4af37" points="293.8,-852.29 291,-844.3 288.2,-852.3 293.8,-852.29"/>
<text xml:space="preserve" text-anchor="middle" x="302.62" y="-861.38" font-family="DejaVu Sans" font-size="11.00" fill="#f2e6c9">create or edit character</text>
</g>
<!-- RuntimePreview -->
<g id="node8" class="node">
<title>RuntimePreview</title>
<path fill="#2e5b3f" stroke="#d4af37" d="M552.77,-842.33C552.77,-842.33 363.23,-842.33 363.23,-842.33 357.23,-842.33 351.23,-836.33 351.23,-830.33 351.23,-830.33 351.23,-806.87 351.23,-806.87 351.23,-800.87 357.23,-794.87 363.23,-794.87 363.23,-794.87 552.77,-794.87 552.77,-794.87 558.77,-794.87 564.77,-800.87 564.77,-806.87 564.77,-806.87 564.77,-830.33 564.77,-830.33 564.77,-836.33 558.77,-842.33 552.77,-842.33"/>
<text xml:space="preserve" text-anchor="middle" x="458" y="-822.55" font-family="DejaVu Sans" font-size="14.00" fill="#f2e6c9">Preview approved asset</text>
<text xml:space="preserve" text-anchor="middle" x="458" y="-805.3" font-family="DejaVu Sans" font-size="14.00" fill="#f2e6c9">inside roster or detail panel</text>
</g>
<!-- Dashboard&#45;&gt;RuntimePreview -->
<g id="edge29" class="edge">
<title>Dashboard&#45;&gt;RuntimePreview</title>
<path fill="none" stroke="#d4af37" d="M448.12,-887.62C448.12,-887.62 448.12,-852.3 448.12,-852.3"/>
<polygon fill="#d4af37" stroke="#d4af37" points="450.93,-852.29 448.13,-844.3 445.33,-852.3 450.93,-852.29"/>
<text xml:space="preserve" text-anchor="middle" x="466.12" y="-861.38" font-family="DejaVu Sans" font-size="11.00" fill="#f2e6c9">asset selected</text>
</g>
<!-- BriefSaved -->
<g id="node7" class="node">
<title>BriefSaved</title>
<path fill="#1e2b44" stroke="#d4af37" d="M298.02,-706.39C298.02,-706.39 139.98,-706.39 139.98,-706.39 133.98,-706.39 127.98,-700.39 127.98,-694.39 127.98,-694.39 127.98,-670.93 127.98,-670.93 127.98,-664.93 133.98,-658.93 139.98,-658.93 139.98,-658.93 298.02,-658.93 298.02,-658.93 304.02,-658.93 310.02,-664.93 310.02,-670.93 310.02,-670.93 310.02,-694.39 310.02,-694.39 310.02,-700.39 304.02,-706.39 298.02,-706.39"/>
<text xml:space="preserve" text-anchor="middle" x="219" y="-686.61" font-family="DejaVu Sans" font-size="14.00" fill="#f2e6c9">Strict JSON brief saved</text>
<text xml:space="preserve" text-anchor="middle" x="219" y="-669.36" font-family="DejaVu Sans" font-size="14.00" fill="#f2e6c9">No runtime image call</text>
</g>
<!-- BriefEditor&#45;&gt;BriefSaved -->
<g id="edge7" class="edge">
<title>BriefEditor&#45;&gt;BriefSaved</title>
<path fill="none" stroke="#d4af37" d="M219,-794.61C219,-794.61 219,-716.38 219,-716.38"/>
<polygon fill="#d4af37" stroke="#d4af37" points="221.8,-716.38 219,-708.38 216.2,-716.38 221.8,-716.38"/>
<text xml:space="preserve" text-anchor="middle" x="262.38" y="-768.42" font-family="DejaVu Sans" font-size="11.00" fill="#f2e6c9">save valid brief</text>
</g>
<!-- ReadBrief -->
<g id="node9" class="node">
<title>ReadBrief</title>
<path fill="#0f1a2e" stroke="#d4af37" d="M495.64,-570.45C495.64,-570.45 320.36,-570.45 320.36,-570.45 314.36,-570.45 308.36,-564.45 308.36,-558.45 308.36,-558.45 308.36,-546.45 308.36,-546.45 308.36,-540.45 314.36,-534.45 320.36,-534.45 320.36,-534.45 495.64,-534.45 495.64,-534.45 501.64,-534.45 507.64,-540.45 507.64,-546.45 507.64,-546.45 507.64,-558.45 507.64,-558.45 507.64,-564.45 501.64,-570.45 495.64,-570.45"/>
<text xml:space="preserve" text-anchor="middle" x="408" y="-547.78" font-family="DejaVu Sans" font-size="14.00" fill="#f2e6c9">Read brief and style docs</text>
</g>
<!-- BriefSaved&#45;&gt;ReadBrief -->
<g id="edge8" class="edge">
<title>BriefSaved&#45;&gt;ReadBrief</title>
<path fill="none" stroke="#8fb3d9" stroke-dasharray="5,2" d="M300.66,-658.69C300.66,-620.97 300.66,-552 300.66,-552 300.66,-552 301.4,-552 301.4,-552"/>
<polygon fill="#8fb3d9" stroke="#8fb3d9" points="298.52,-554.8 306.52,-552 298.52,-549.2 298.52,-554.8"/>
<text xml:space="preserve" text-anchor="middle" x="172" y="-626" font-family="DejaVu Sans" font-size="11.00" fill="#f2e6c9">Codex hand&#45;off</text>
</g>
<!-- StructuredPrompt -->
<g id="node10" class="node">
<title>StructuredPrompt</title>
<path fill="#0f1a2e" stroke="#d4af37" d="M528.89,-476.74C528.89,-476.74 379.11,-476.74 379.11,-476.74 373.11,-476.74 367.11,-470.74 367.11,-464.74 367.11,-464.74 367.11,-441.28 367.11,-441.28 367.11,-435.28 373.11,-429.28 379.11,-429.28 379.11,-429.28 528.89,-429.28 528.89,-429.28 534.89,-429.28 540.89,-435.28 540.89,-441.28 540.89,-441.28 540.89,-464.74 540.89,-464.74 540.89,-470.74 534.89,-476.74 528.89,-476.74"/>
<text xml:space="preserve" text-anchor="middle" x="454" y="-456.96" font-family="DejaVu Sans" font-size="14.00" fill="#f2e6c9">Build structured</text>
<text xml:space="preserve" text-anchor="middle" x="454" y="-439.71" font-family="DejaVu Sans" font-size="14.00" fill="#f2e6c9">GPT Images 2 prompt</text>
</g>
<!-- ReadBrief&#45;&gt;StructuredPrompt -->
<g id="edge9" class="edge">
<title>ReadBrief&#45;&gt;StructuredPrompt</title>
<path fill="none" stroke="#d4af37" d="M437.38,-534.21C437.38,-534.21 437.38,-486.65 437.38,-486.65"/>
<polygon fill="#d4af37" stroke="#d4af37" points="440.18,-486.65 437.38,-478.65 434.58,-486.65 440.18,-486.65"/>
</g>
<!-- ImageGen -->
<g id="node11" class="node">
<title>ImageGen</title>
<path fill="#2e5b3f" stroke="#d4af37" d="M518.39,-371.57C518.39,-371.57 389.61,-371.57 389.61,-371.57 383.61,-371.57 377.61,-365.57 377.61,-359.57 377.61,-359.57 377.61,-347.57 377.61,-347.57 377.61,-341.57 383.61,-335.57 389.61,-335.57 389.61,-335.57 518.39,-335.57 518.39,-335.57 524.39,-335.57 530.39,-341.57 530.39,-347.57 530.39,-347.57 530.39,-359.57 530.39,-359.57 530.39,-365.57 524.39,-371.57 518.39,-371.57"/>
<text xml:space="preserve" text-anchor="middle" x="454" y="-348.9" font-family="DejaVu Sans" font-size="14.00" fill="#f2e6c9">Built&#45;in image_gen</text>
</g>
<!-- StructuredPrompt&#45;&gt;ImageGen -->
<g id="edge10" class="edge">
<title>StructuredPrompt&#45;&gt;ImageGen</title>
<path fill="none" stroke="#d4af37" d="M454,-428.94C454,-428.94 454,-381.33 454,-381.33"/>
<polygon fill="#d4af37" stroke="#d4af37" points="456.8,-381.33 454,-373.33 451.2,-381.33 456.8,-381.33"/>
</g>
<!-- Inspect -->
<g id="node12" class="node">
<title>Inspect</title>
<path fill="#4b2e1a" stroke="#d4af37" d="M442.49,-280.95C442.49,-280.95 304.47,-240.27 304.47,-240.27 298.72,-238.58 298.72,-235.18 304.47,-233.49 304.47,-233.49 442.49,-192.81 442.49,-192.81 448.24,-191.12 459.76,-191.12 465.51,-192.81 465.51,-192.81 603.53,-233.49 603.53,-233.49 609.28,-235.18 609.28,-238.58 603.53,-240.27 603.53,-240.27 465.51,-280.95 465.51,-280.95 459.76,-282.64 448.24,-282.64 442.49,-280.95"/>
<text xml:space="preserve" text-anchor="middle" x="454" y="-240.83" font-family="DejaVu Sans" font-size="14.00" fill="#f2e6c9">Subject, style, text,</text>
<text xml:space="preserve" text-anchor="middle" x="454" y="-223.58" font-family="DejaVu Sans" font-size="14.00" fill="#f2e6c9">and avoid&#45;list pass?</text>
</g>
<!-- ImageGen&#45;&gt;Inspect -->
<g id="edge11" class="edge">
<title>ImageGen&#45;&gt;Inspect</title>
<path fill="none" stroke="#d4af37" d="M454,-335.08C454,-335.08 454,-294.25 454,-294.25"/>
<polygon fill="#d4af37" stroke="#d4af37" points="456.8,-294.25 454,-286.25 451.2,-294.25 456.8,-294.25"/>
</g>
<!-- RevisePrompt -->
<g id="node13" class="node">
<title>RevisePrompt</title>
<path fill="#7a2e1a" stroke="#d4af37" d="M701.27,-143.92C701.27,-143.92 586.73,-143.92 586.73,-143.92 580.73,-143.92 574.73,-137.92 574.73,-131.92 574.73,-131.92 574.73,-108.46 574.73,-108.46 574.73,-102.46 580.73,-96.46 586.73,-96.46 586.73,-96.46 701.27,-96.46 701.27,-96.46 707.27,-96.46 713.27,-102.46 713.27,-108.46 713.27,-108.46 713.27,-131.92 713.27,-131.92 713.27,-137.92 707.27,-143.92 701.27,-143.92"/>
<text xml:space="preserve" text-anchor="middle" x="644" y="-124.14" font-family="DejaVu Sans" font-size="14.00" fill="#f2e6c9">Revise one thing</text>
<text xml:space="preserve" text-anchor="middle" x="644" y="-106.89" font-family="DejaVu Sans" font-size="14.00" fill="#f2e6c9">and regenerate</text>
</g>
<!-- Inspect&#45;&gt;RevisePrompt -->
<g id="edge12" class="edge">
<title>Inspect&#45;&gt;RevisePrompt</title>
<path fill="none" stroke="#d4af37" d="M594.88,-230.61C594.88,-230.61 594.88,-153.75 594.88,-153.75"/>
<polygon fill="#d4af37" stroke="#d4af37" points="597.69,-153.75 594.89,-145.75 592.09,-153.75 597.69,-153.75"/>
<text xml:space="preserve" text-anchor="middle" x="580.75" y="-162.97" font-family="DejaVu Sans" font-size="11.00" fill="#f2e6c9">no</text>
</g>
<!-- CopyWorkspace -->
<g id="node14" class="node">
<title>CopyWorkspace</title>
<path fill="#0f1a2e" stroke="#d4af37" d="M526.89,-143.92C526.89,-143.92 305.11,-143.92 305.11,-143.92 299.11,-143.92 293.11,-137.92 293.11,-131.92 293.11,-131.92 293.11,-108.46 293.11,-108.46 293.11,-102.46 299.11,-96.46 305.11,-96.46 305.11,-96.46 526.89,-96.46 526.89,-96.46 532.89,-96.46 538.89,-102.46 538.89,-108.46 538.89,-108.46 538.89,-131.92 538.89,-131.92 538.89,-137.92 532.89,-143.92 526.89,-143.92"/>
<text xml:space="preserve" text-anchor="middle" x="416" y="-124.14" font-family="DejaVu Sans" font-size="14.00" fill="#f2e6c9">Copy accepted source</text>
<text xml:space="preserve" text-anchor="middle" x="416" y="-106.89" font-family="DejaVu Sans" font-size="14.00" fill="#f2e6c9">into assets/source/gpt&#45;images&#45;2</text>
</g>
<!-- Inspect&#45;&gt;CopyWorkspace -->
<g id="edge14" class="edge">
<title>Inspect&#45;&gt;CopyWorkspace</title>
<path fill="none" stroke="#d4af37" d="M416,-200.28C416,-200.28 416,-153.66 416,-153.66"/>
<polygon fill="#d4af37" stroke="#d4af37" points="418.8,-153.66 416,-145.66 413.2,-153.66 418.8,-153.66"/>
<text xml:space="preserve" text-anchor="middle" x="444.75" y="-162.97" font-family="DejaVu Sans" font-size="11.00" fill="#f2e6c9">yes</text>
</g>
<!-- RevisePrompt&#45;&gt;StructuredPrompt -->
<g id="edge13" class="edge">
<title>RevisePrompt&#45;&gt;StructuredPrompt</title>
<path fill="none" stroke="#d4af37" d="M619.41,-144.39C619.41,-220.98 619.41,-453 619.41,-453 619.41,-453 550.58,-453 550.58,-453"/>
<polygon fill="#d4af37" stroke="#d4af37" points="550.58,-450.2 542.58,-453 550.58,-455.8 550.58,-450.2"/>
</g>
<!-- Manifest -->
<g id="node15" class="node">
<title>Manifest</title>
<path fill="#0f1a2e" stroke="#d4af37" d="M399.64,-63.46C399.64,-63.46 176.36,-63.46 176.36,-63.46 170.36,-63.46 164.36,-57.46 164.36,-51.46 164.36,-51.46 164.36,-28 164.36,-28 164.36,-22 170.36,-16 176.36,-16 176.36,-16 399.64,-16 399.64,-16 405.64,-16 411.64,-22 411.64,-28 411.64,-28 411.64,-51.46 411.64,-51.46 411.64,-57.46 405.64,-63.46 399.64,-63.46"/>
<text xml:space="preserve" text-anchor="middle" x="288" y="-43.68" font-family="DejaVu Sans" font-size="14.00" fill="#f2e6c9">Create or update manifest</text>
<text xml:space="preserve" text-anchor="middle" x="288" y="-26.43" font-family="DejaVu Sans" font-size="14.00" fill="#f2e6c9">prompt provenance + validation</text>
</g>
<!-- CopyWorkspace&#45;&gt;Manifest -->
<g id="edge15" class="edge">
<title>CopyWorkspace&#45;&gt;Manifest</title>
<path fill="none" stroke="#d4af37" d="M352.38,-96.05C352.38,-96.05 352.38,-73.37 352.38,-73.37"/>
<polygon fill="#d4af37" stroke="#d4af37" points="355.18,-73.37 352.38,-65.37 349.58,-73.37 355.18,-73.37"/>
</g>
<!-- NeedsAlpha -->
<g id="node16" class="node">
<title>NeedsAlpha</title>
<path fill="#4b2e1a" stroke="#d4af37" d="M849.38,-709.86C849.38,-709.86 755.83,-685.67 755.83,-685.67 750.02,-684.16 750.02,-681.16 755.83,-679.65 755.83,-679.65 849.38,-655.46 849.38,-655.46 855.19,-653.95 866.81,-653.95 872.62,-655.46 872.62,-655.46 966.17,-679.65 966.17,-679.65 971.98,-681.16 971.98,-684.16 966.17,-685.67 966.17,-685.67 872.62,-709.86 872.62,-709.86 866.81,-711.37 855.19,-711.37 849.38,-709.86"/>
<text xml:space="preserve" text-anchor="middle" x="861" y="-677.99" font-family="DejaVu Sans" font-size="14.00" fill="#f2e6c9">Needs alpha?</text>
</g>
<!-- Manifest&#45;&gt;NeedsAlpha -->
<g id="edge16" class="edge">
<title>Manifest&#45;&gt;NeedsAlpha</title>
<path fill="none" stroke="#d4af37" d="M412.13,-40C541.4,-40 725.25,-40 725.25,-40 725.25,-40 725.25,-683 725.25,-683 725.25,-683 734.04,-683 734.04,-683"/>
<polygon fill="#d4af37" stroke="#d4af37" points="734.04,-685.8 742.04,-683 734.04,-680.2 734.04,-685.8"/>
</g>
<!-- ChromaKey -->
<g id="node17" class="node">
<title>ChromaKey</title>
<path fill="#0f1a2e" stroke="#d4af37" d="M942.64,-576.18C942.64,-576.18 779.36,-576.18 779.36,-576.18 773.36,-576.18 767.36,-570.18 767.36,-564.18 767.36,-564.18 767.36,-540.72 767.36,-540.72 767.36,-534.72 773.36,-528.72 779.36,-528.72 779.36,-528.72 942.64,-528.72 942.64,-528.72 948.64,-528.72 954.64,-534.72 954.64,-540.72 954.64,-540.72 954.64,-564.18 954.64,-564.18 954.64,-570.18 948.64,-576.18 942.64,-576.18"/>
<text xml:space="preserve" text-anchor="middle" x="861" y="-556.4" font-family="DejaVu Sans" font-size="14.00" fill="#f2e6c9">Chroma&#45;key source</text>
<text xml:space="preserve" text-anchor="middle" x="861" y="-539.15" font-family="DejaVu Sans" font-size="14.00" fill="#f2e6c9">then remove key locally</text>
</g>
<!-- NeedsAlpha&#45;&gt;ChromaKey -->
<g id="edge17" class="edge">
<title>NeedsAlpha&#45;&gt;ChromaKey</title>
<path fill="none" stroke="#d4af37" d="M861,-652.13C861,-652.13 861,-585.8 861,-585.8"/>
<polygon fill="#d4af37" stroke="#d4af37" points="863.8,-585.8 861,-577.8 858.2,-585.8 863.8,-585.8"/>
<text xml:space="preserve" text-anchor="middle" x="870.75" y="-626" font-family="DejaVu Sans" font-size="11.00" fill="#f2e6c9">yes</text>
</g>
<!-- PostProcess -->
<g id="node20" class="node">
<title>PostProcess</title>
<path fill="#0f1a2e" stroke="#d4af37" d="M1077.27,-377.3C1077.27,-377.3 932.73,-377.3 932.73,-377.3 926.73,-377.3 920.73,-371.3 920.73,-365.3 920.73,-365.3 920.73,-341.84 920.73,-341.84 920.73,-335.84 926.73,-329.84 932.73,-329.84 932.73,-329.84 1077.27,-329.84 1077.27,-329.84 1083.27,-329.84 1089.27,-335.84 1089.27,-341.84 1089.27,-341.84 1089.27,-365.3 1089.27,-365.3 1089.27,-371.3 1083.27,-377.3 1077.27,-377.3"/>
<text xml:space="preserve" text-anchor="middle" x="1005" y="-357.52" font-family="DejaVu Sans" font-size="14.00" fill="#f2e6c9">Crop, quantize, slice,</text>
<text xml:space="preserve" text-anchor="middle" x="1005" y="-340.27" font-family="DejaVu Sans" font-size="14.00" fill="#f2e6c9">normalize, validate</text>
</g>
<!-- NeedsAlpha&#45;&gt;PostProcess -->
<g id="edge22" class="edge">
<title>NeedsAlpha&#45;&gt;PostProcess</title>
<path fill="none" stroke="#d4af37" d="M970.16,-680.2C970.16,-680.2 970.16,-387.26 970.16,-387.26"/>
<polygon fill="#d4af37" stroke="#d4af37" points="972.97,-387.26 970.17,-379.26 967.37,-387.26 972.97,-387.26"/>
<text xml:space="preserve" text-anchor="middle" x="1008.75" y="-502.27" font-family="DejaVu Sans" font-size="11.00" fill="#f2e6c9">no</text>
</g>
<!-- AlphaGate -->
<g id="node18" class="node">
<title>AlphaGate</title>
<path fill="#4b2e1a" stroke="#d4af37" d="M839.42,-480.08C839.42,-480.08 751.04,-456.15 751.04,-456.15 745.25,-454.58 745.25,-451.44 751.04,-449.87 751.04,-449.87 839.42,-425.94 839.42,-425.94 845.21,-424.37 856.79,-424.37 862.58,-425.94 862.58,-425.94 950.96,-449.87 950.96,-449.87 956.75,-451.44 956.75,-454.58 950.96,-456.15 950.96,-456.15 862.58,-480.08 862.58,-480.08 856.79,-481.65 845.21,-481.65 839.42,-480.08"/>
<text xml:space="preserve" text-anchor="middle" x="851" y="-448.34" font-family="DejaVu Sans" font-size="14.00" fill="#f2e6c9">Alpha clean?</text>
</g>
<!-- ChromaKey&#45;&gt;AlphaGate -->
<g id="edge18" class="edge">
<title>ChromaKey&#45;&gt;AlphaGate</title>
<path fill="none" stroke="#d4af37" d="M829.78,-528.38C829.78,-528.38 829.78,-487.41 829.78,-487.41"/>
<polygon fill="#d4af37" stroke="#d4af37" points="832.59,-487.41 829.79,-479.41 826.99,-487.41 832.59,-487.41"/>
</g>
<!-- AlphaGate&#45;&gt;ChromaKey -->
<g id="edge20" class="edge">
<title>AlphaGate&#45;&gt;ChromaKey</title>
<path fill="none" stroke="#d4af37" d="M892.22,-472.18C892.22,-472.18 892.22,-518.9 892.22,-518.9"/>
<polygon fill="#d4af37" stroke="#d4af37" points="889.42,-518.9 892.22,-526.9 895.02,-518.9 889.42,-518.9"/>
<text xml:space="preserve" text-anchor="middle" x="901.5" y="-502.27" font-family="DejaVu Sans" font-size="11.00" fill="#f2e6c9">retry once</text>
</g>
<!-- AskFallback -->
<g id="node19" class="node">
<title>AskFallback</title>
<path fill="#7a4a2b" stroke="#d4af37" d="M872.77,-377.3C872.77,-377.3 749.23,-377.3 749.23,-377.3 743.23,-377.3 737.23,-371.3 737.23,-365.3 737.23,-365.3 737.23,-341.84 737.23,-341.84 737.23,-335.84 743.23,-329.84 749.23,-329.84 749.23,-329.84 872.77,-329.84 872.77,-329.84 878.77,-329.84 884.77,-335.84 884.77,-341.84 884.77,-341.84 884.77,-365.3 884.77,-365.3 884.77,-371.3 878.77,-377.3 872.77,-377.3"/>
<text xml:space="preserve" text-anchor="middle" x="811" y="-357.52" font-family="DejaVu Sans" font-size="14.00" fill="#f2e6c9">Ask before CLI</text>
<text xml:space="preserve" text-anchor="middle" x="811" y="-340.27" font-family="DejaVu Sans" font-size="14.00" fill="#f2e6c9">true transparency</text>
</g>
<!-- AlphaGate&#45;&gt;AskFallback -->
<g id="edge21" class="edge">
<title>AlphaGate&#45;&gt;AskFallback</title>
<path fill="none" stroke="#d4af37" d="M812.12,-432.89C812.12,-432.89 812.12,-387.03 812.12,-387.03"/>
<polygon fill="#d4af37" stroke="#d4af37" points="814.92,-387.03 812.12,-379.03 809.32,-387.03 814.92,-387.03"/>
<text xml:space="preserve" text-anchor="middle" x="858.38" y="-396.35" font-family="DejaVu Sans" font-size="11.00" fill="#f2e6c9">complex fail</text>
</g>
<!-- AlphaGate&#45;&gt;PostProcess -->
<g id="edge19" class="edge">
<title>AlphaGate&#45;&gt;PostProcess</title>
<path fill="none" stroke="#d4af37" d="M941.63,-447.09C941.63,-447.09 941.63,-387.03 941.63,-387.03"/>
<polygon fill="#d4af37" stroke="#d4af37" points="944.44,-387.03 941.64,-379.03 938.84,-387.03 944.44,-387.03"/>
<text xml:space="preserve" text-anchor="middle" x="957.75" y="-396.35" font-family="DejaVu Sans" font-size="11.00" fill="#f2e6c9">yes</text>
</g>
<!-- ProcessGate -->
<g id="node21" class="node">
<title>ProcessGate</title>
<path fill="#4b2e1a" stroke="#d4af37" d="M914.17,-265.07C914.17,-265.07 761.04,-238.9 761.04,-238.9 755.12,-237.89 755.12,-235.87 761.04,-234.86 761.04,-234.86 914.17,-208.69 914.17,-208.69 920.09,-207.68 931.91,-207.68 937.83,-208.69 937.83,-208.69 1090.96,-234.86 1090.96,-234.86 1096.88,-235.87 1096.88,-237.89 1090.96,-238.9 1090.96,-238.9 937.83,-265.07 937.83,-265.07 931.91,-266.08 920.09,-266.08 914.17,-265.07"/>
<text xml:space="preserve" text-anchor="middle" x="926" y="-232.21" font-family="DejaVu Sans" font-size="14.00" fill="#f2e6c9">Runtime quality pass?</text>
</g>
<!-- PostProcess&#45;&gt;ProcessGate -->
<g id="edge23" class="edge">
<title>PostProcess&#45;&gt;ProcessGate</title>
<path fill="none" stroke="#d4af37" d="M976.91,-329.39C976.91,-329.39 976.91,-268.18 976.91,-268.18"/>
<polygon fill="#d4af37" stroke="#d4af37" points="979.71,-268.18 976.91,-260.18 974.11,-268.18 979.71,-268.18"/>
</g>
<!-- ProcessGate&#45;&gt;RevisePrompt -->
<g id="edge24" class="edge">
<title>ProcessGate&#45;&gt;RevisePrompt</title>
<path fill="none" stroke="#d4af37" d="M747.18,-237C703.24,-237 668.53,-237 668.53,-237 668.53,-237 668.53,-153.91 668.53,-153.91"/>
<polygon fill="#d4af37" stroke="#d4af37" points="671.33,-153.91 668.53,-145.91 665.73,-153.91 671.33,-153.91"/>
<text xml:space="preserve" text-anchor="middle" x="799.75" y="-162.97" font-family="DejaVu Sans" font-size="11.00" fill="#f2e6c9">source problem</text>
</g>
<!-- ProcessGate&#45;&gt;PostProcess -->
<g id="edge25" class="edge">
<title>ProcessGate&#45;&gt;PostProcess</title>
<path fill="none" stroke="#d4af37" d="M1033.09,-248.93C1033.09,-248.93 1033.09,-320.18 1033.09,-320.18"/>
<polygon fill="#d4af37" stroke="#d4af37" points="1030.29,-320.18 1033.09,-328.18 1035.89,-320.18 1030.29,-320.18"/>
<text xml:space="preserve" text-anchor="middle" x="1020.38" y="-303.39" font-family="DejaVu Sans" font-size="11.00" fill="#f2e6c9">local fix</text>
</g>
<!-- Atlas -->
<g id="node22" class="node">
<title>Atlas</title>
<path fill="#0f1a2e" stroke="#d4af37" d="M1068.52,-138.19C1068.52,-138.19 913.48,-138.19 913.48,-138.19 907.48,-138.19 901.48,-132.19 901.48,-126.19 901.48,-126.19 901.48,-114.19 901.48,-114.19 901.48,-108.19 907.48,-102.19 913.48,-102.19 913.48,-102.19 1068.52,-102.19 1068.52,-102.19 1074.52,-102.19 1080.52,-108.19 1080.52,-114.19 1080.52,-114.19 1080.52,-126.19 1080.52,-126.19 1080.52,-132.19 1074.52,-138.19 1068.52,-138.19"/>
<text xml:space="preserve" text-anchor="middle" x="991" y="-115.52" font-family="DejaVu Sans" font-size="14.00" fill="#f2e6c9">Pack atlas + metadata</text>
</g>
<!-- ProcessGate&#45;&gt;Atlas -->
<g id="edge26" class="edge">
<title>ProcessGate&#45;&gt;Atlas</title>
<path fill="none" stroke="#d4af37" d="M991,-217.35C991,-217.35 991,-148.14 991,-148.14"/>
<polygon fill="#d4af37" stroke="#d4af37" points="993.8,-148.14 991,-140.14 988.2,-148.14 993.8,-148.14"/>
<text xml:space="preserve" text-anchor="middle" x="957.75" y="-162.97" font-family="DejaVu Sans" font-size="11.00" fill="#f2e6c9">yes</text>
</g>
<!-- ApprovedManifest -->
<g id="node23" class="node">
<title>ApprovedManifest</title>
<path fill="#2e5b3f" stroke="#d4af37" d="M1205.14,-57.73C1205.14,-57.73 1014.86,-57.73 1014.86,-57.73 1008.86,-57.73 1002.86,-51.73 1002.86,-45.73 1002.86,-45.73 1002.86,-33.73 1002.86,-33.73 1002.86,-27.73 1008.86,-21.73 1014.86,-21.73 1014.86,-21.73 1205.14,-21.73 1205.14,-21.73 1211.14,-21.73 1217.14,-27.73 1217.14,-33.73 1217.14,-33.73 1217.14,-45.73 1217.14,-45.73 1217.14,-51.73 1211.14,-57.73 1205.14,-57.73"/>
<text xml:space="preserve" text-anchor="middle" x="1110" y="-35.06" font-family="DejaVu Sans" font-size="14.00" fill="#f2e6c9">Approved runtime manifest</text>
</g>
<!-- Atlas&#45;&gt;ApprovedManifest -->
<g id="edge27" class="edge">
<title>Atlas&#45;&gt;ApprovedManifest</title>
<path fill="none" stroke="#d4af37" d="M1041.69,-101.93C1041.69,-101.93 1041.69,-67.71 1041.69,-67.71"/>
<polygon fill="#d4af37" stroke="#d4af37" points="1044.49,-67.71 1041.69,-59.71 1038.89,-67.71 1044.49,-67.71"/>
</g>
<!-- ApprovedManifest&#45;&gt;LoadRepoState -->
<g id="edge28" class="edge">
<title>ApprovedManifest&#45;&gt;LoadRepoState</title>
<path fill="none" stroke="#8fb3d9" stroke-dasharray="5,2" d="M1159.97,-57.81C1159.97,-204.28 1159.97,-1191 1159.97,-1191 1159.97,-1191 629.21,-1191 629.21,-1191"/>
<polygon fill="#8fb3d9" stroke="#8fb3d9" points="629.21,-1188.2 621.21,-1191 629.21,-1193.8 629.21,-1188.2"/>
<text xml:space="preserve" text-anchor="middle" x="1188.38" y="-626" font-family="DejaVu Sans" font-size="11.00" fill="#f2e6c9">reload files</text>
</g>
</g>
</svg>
